<?xml version="1.0" encoding="utf-8"?><svg viewBox="0 0 20 20" xmlns="http://www.w3.org/2000/svg" xmlns:xlink="http://www.w3.org/1999/xlink"><style>:root>svg{display:none}:root>svg:target{display:block}</style><svg fill="none" viewBox="0 0 12 12" id="arrow" xmlns="http://www.w3.org/2000/svg"><path d="M6 1.333v9.334M10.667 6L6 10.667 1.333 6" stroke="#fff" stroke-linecap="round" stroke-linejoin="round"/></svg><svg fill="none" viewBox="0 0 12 8" id="arrow-down" xmlns="http://www.w3.org/2000/svg"><path d="M1 1.5l5 5 5-5" stroke="#fff" stroke-width="2"/></svg><svg fill="none" viewBox="0 0 7 12" id="arrow-right" xmlns="http://www.w3.org/2000/svg"><path d="M1 11l5-5-5-5"/></svg><svg fill="none" viewBox="0 0 12 12" id="arrow-up" xmlns="http://www.w3.org/2000/svg"><path d="M6 10.667V1.333M1.333 6L6 1.333 10.667 6" stroke="#fff" stroke-linecap="round" stroke-linejoin="round"/></svg><svg fill="none" viewBox="0 0 18 19" id="bell" xmlns="http://www.w3.org/2000/svg"><path d="M17.333 15.667H.667V14H1.5V8.193C1.5 4.036 4.858.667 9 .667c4.142 0 7.5 3.369 7.5 7.526V14h.833v1.667zM6.917 16.5h4.166a2.083 2.083 0 11-4.166 0z" fill="#fff"/></svg><svg fill="none" viewBox="0 0 18 18" id="calendar" xmlns="http://www.w3.org/2000/svg"><path d="M.667 9.167h16.666v7.5a.833.833 0 01-.833.833h-15a.833.833 0 01-.833-.833v-7.5zm12.5-6.667H16.5a.833.833 0 01.833.833V7.5H.667V3.333A.833.833 0 011.5 2.5h3.333V.833H6.5V2.5h5V.833h1.667V2.5z" fill="#fff"/></svg><svg fill="none" viewBox="0 0 12 17" id="expenses" xmlns="http://www.w3.org/2000/svg"><path d="M1.333 11.2v2.6h3.334v2.6h2.666v-2.6h1.334c.884 0 1.732-.342 2.357-.952A3.21 3.21 0 0012 10.55a3.21 3.21 0 00-.976-2.298A3.377 3.377 0 008.667 7.3H3.333a.675.675 0 01-.471-.19.642.642 0 010-.92.675.675 0 01.471-.19h7.334V3.4H7.333V.8H4.667v2.6H3.333c-.884 0-1.732.342-2.357.952A3.21 3.21 0 000 6.65c0 .862.351 1.689.976 2.298.625.61 1.473.952 2.357.952h5.334c.176 0 .346.068.471.19a.642.642 0 010 .92.675.675 0 01-.471.19H1.333z" fill="#fff"/></svg><svg fill="none" viewBox="0 0 16 17" id="people" xmlns="http://www.w3.org/2000/svg"><path d="M8 8.029a4.2 4.2 0 002.846-1.088c.754-.697 1.178-1.642 1.178-2.627 0-.985-.424-1.93-1.178-2.626A4.2 4.2 0 008 .6a4.2 4.2 0 00-2.845 1.088c-.755.696-1.18 1.641-1.18 2.626 0 .985.425 1.93 1.18 2.627A4.2 4.2 0 008 8.029zM.8 16.2h14.4c-.195-1.637-1.038-3.15-2.366-4.248-1.329-1.099-3.05-1.707-4.834-1.707-1.784 0-3.505.608-4.834 1.707C1.838 13.05.996 14.563.8 16.2z" fill="#fff"/></svg><svg fill="none" viewBox="0 0 20 20" id="question" xmlns="http://www.w3.org/2000/svg"><path d="M10 0C4.48 0 0 4.48 0 10s4.48 10 10 10 10-4.48 10-10S15.52 0 10 0zm.544 15.73H8.97a.134.134 0 01-.133-.135v-1.573a.134.134 0 01.133-.133h1.574a.134.134 0 01.133.133v1.573a.134.134 0 01-.133.134zm.885-5.157c-.844.567-.96 1.086-.96 1.562v.573a.156.156 0 01-.156.157H9.166a.156.156 0 01-.157-.157v-.573c0-1.14.525-2.048 1.606-2.774 1.004-.674 1.572-1.1 1.572-2.04 0-.638-.365-1.123-1.12-1.482-.177-.084-.573-.167-1.06-.16-.61.007-1.084.153-1.449.447-.688.554-.746 1.157-.746 1.166a3.422 3.422 0 00-.044.535.156.156 0 01-.157.156H6.506a.156.156 0 01-.157-.14 3.213 3.213 0 01.005-.625c.012-.126.094-1.266 1.29-2.229.62-.499 1.41-.758 2.344-.77.662-.008 1.283.104 1.704.303 1.261.6 1.954 1.594 1.954 2.8 0 1.761-1.178 2.552-2.217 3.25z" fill="#fff"/></svg><svg fill="none" viewBox="0 0 14 14" id="refresh" xmlns="http://www.w3.org/2000/svg"><path d="M2.657 1.972a6.644 6.644 0 019.785 8.842L10.322 7h1.994a5.316 5.316 0 00-8.997-3.835l-.662-1.193zm8.687 10.056a6.644 6.644 0 01-9.785-8.842L3.677 7H1.684a5.315 5.315 0 008.997 3.835l.663 1.193z" fill="#fff"/></svg><svg fill="none" viewBox="0 0 13 13" id="search" xmlns="http://www.w3.org/2000/svg"><circle cx="5.25" cy="5.25" r="4.25" stroke="#fff" stroke-width="2"/><path d="M8.25 8.25L12 12" stroke="#fff" stroke-width="2"/></svg><svg fill="none" viewBox="0 0 16 17" id="statistic" xmlns="http://www.w3.org/2000/svg"><path d="M4.4 16.2H.8V6.45h3.6v9.75zm5.4 0H6.2V.6h3.6v15.6zm5.4 0h-3.6V8.4h3.6v7.8z" fill="#fff"/></svg><svg fill="none" viewBox="0 0 16 17" id="support" xmlns="http://www.w3.org/2000/svg"><path d="M15.2 12.018a4.597 4.597 0 01-.954 2.811 4.302 4.302 0 01-2.44 1.571l-.459-1.431c.421-.072.821-.24 1.172-.492.35-.252.643-.582.856-.965H11.6c-.382 0-.748-.158-1.018-.438s-.422-.66-.422-1.057V9.025c0-.396.152-.777.422-1.057.27-.28.636-.438 1.018-.438h2.115a6.057 6.057 0 00-1.905-3.738A5.64 5.64 0 008 2.296a5.64 5.64 0 00-3.81 1.496A6.057 6.057 0 002.285 7.53H4.4c.382 0 .748.157 1.018.438.27.28.422.66.422 1.057v2.992c0 .396-.152.777-.422 1.057-.27.28-.636.438-1.018.438H2.24c-.382 0-.748-.158-1.018-.438S.8 12.414.8 12.017v-3.74C.8 4.148 4.023.8 8 .8c3.977 0 7.2 3.348 7.2 7.478v3.74z" fill="#D9D9D9"/></svg></svg>